<svg xmlns="http://www.w3.org/2000/svg" viewBox="0 0 512 512">
  <path fill="#0B1120" d="M256 0c-48 0-96 14-140 40C68 68 32 108 12 156c-4 10-6 20-6 30v110c0 40 10 80 28 116 18 36 46 68 80 92l126 90c10 8 26 8 36 0l126-90c34-24 62-56 80-92 18-36 28-76 28-116V186c0-10-2-20-6-30-20-48-56-88-104-116C352 14 304 0 256 0zm0 48c38 0 74 12 106 34 36 24 62 58 76 96v110c0 30-8 58-22 84-14 26-34 48-60 66l-100 72-100-72c-26-18-46-40-60-66-14-26-22-54-22-84V178c14-38 40-72 76-96 32-22 68-34 106-34z"/>

  <path fill="#C59D5F" d="M256 120l-70 70 24 24 46-46 46 46 24-24-70-70zm-90 90l-40 40 24 24 16-16 16 16 24-24-40-40zm180 0l-40 40 24 24 16-16 16 16 24-24-40-40zM256 240l-24 24 24 24 24-24-24-24zm0 80l-70 70 24 24 46-46 46 46 24-24-70-70z"/>
  
  <circle cx="256" cy="264" r="16" fill="#C59D5F"/>
  <circle cx="166" cy="210" r="12" fill="#0B1120"/>
  <circle cx="346" cy="210" r="12" fill="#0B1120"/>
  <circle cx="256" cy="354" r="12" fill="#0B1120"/>

</svg>